# xmcd
#
# Track frame offsets:
#       150
#       8014
#       20922
#       43440
#       60954
#       91200
#       107573
#       127157
#       144060
#       185115
#       202257
#       232417
#
# Disc length: 3192 seconds
#
# Revision: 0
# Processed by: cddbd v1.4PL0 Copyright (c) Steve Scherf et al.
# Submitted via: CD-DA_X-Tractor v0.21
#
DISCID=b00c760c
DTITLE=JK Blues Band - Tomorrow Night
DYEAR=1900
DGENRE=
TTITLE0=Tomorrow Night (Intro)
TTITLE1=Built For Comfort
TTITLE2=Do The Do
TTITLE3=She Was Trouble
TTITLE4=Deep Down In Florida
TTITLE5=Saturday Night Fish Fry
TTITLE6=Egg Or The Hen
TTITLE7=Ain't Superstitious
TTITLE8=Sure Enough It's You
TTITLE9=Don't Burn Down The Bridge
TTITLE10=Life Is Hard
TTITLE11=Tomorrow Night (Outro)
EXTD=
EXTT0=
EXTT1=
EXTT2=
EXTT3=
EXTT4=
EXTT5=
EXTT6=
EXTT7=
EXTT8=
EXTT9=
EXTT10=
EXTT11=
PLAYORDER=
